<?xml version="1.0" standalone="no"?>
<!DOCTYPE svg PUBLIC "-//W3C//DTD SVG 20010904//EN"
  "http://www.w3.org/TR/2001/REC-SVG-20010904/DTD/svg10.dtd">
<svg version="1.0"
     xmlns="http://www.w3.org/2000/svg"
     width="current"
     height="current"
     viewBox="0 0 2000.000000 2000.000000"
     preserveAspectRatio="xMidYMid meet">

  <g transform="translate(0.000000,2000.000000) scale(0.100000,-0.100000)"
     fill="current" stroke="none">
    <path d="M4094 9585 c-4 -10 -20 -15 -44 -15 -21 0 -43 -7 -50 -15 -8 -10 -30
-15 -61 -15 -27 0 -49 -4 -49 -10 0 -5 -9 -10 -20 -10 -11 0 -20 -4 -20 -10 0
-5 -6 -10 -13 -10 -18 0 -75 -28 -82 -41 -4 -5 -13 -9 -21 -9 -17 0 -324 -305
-324 -322 0 -6 -15 -26 -34 -43 -36 -32 -76 -96 -76 -119 0 -8 -7 -17 -16 -20
-8 -3 -13 -10 -10 -15 4 -5 -1 -16 -9 -24 -8 -9 -15 -23 -15 -31 0 -9 -4 -16
-10 -16 -5 0 -10 -9 -10 -19 0 -11 -4 -23 -10 -26 -5 -3 -10 -15 -10 -26 0
-10 -4 -19 -10 -19 -5 0 -10 -13 -10 -29 0 -16 -7 -34 -15 -41 -8 -7 -15 -23
-15 -36 0 -12 -4 -26 -10 -29 -5 -3 -10 -28 -10 -55 0 -27 -4 -52 -10 -55 -5
-3 -10 -35 -10 -71 0 -36 -4 -64 -10 -64 -6 0 -10 -32 -10 -75 0 -49 -4 -75
-11 -75 -8 0 -7 -5 2 -16 11 -14 11 -18 -1 -28 -12 -9 -14 -32 -12 -112 3 -82
0 -103 -12 -113 -11 -10 -16 -31 -16 -72 0 -32 -4 -61 -10 -64 -5 -3 -10 -24
-10 -46 0 -21 -4 -39 -10 -39 -5 0 -10 -8 -10 -18 0 -10 -5 -23 -12 -30 -9 -9
-9 -12 0 -12 20 0 13 -21 -13 -42 -14 -11 -25 -28 -25 -39 0 -10 -4 -19 -10
-19 -5 0 -10 -13 -10 -28 0 -16 -9 -37 -20 -47 -11 -10 -20 -26 -20 -35 0 -10
-7 -21 -16 -24 -8 -3 -13 -10 -9 -15 3 -6 -10 -25 -29 -44 -19 -19 -36 -43
-38 -53 -2 -10 -12 -20 -22 -22 -10 -2 -32 -17 -49 -33 -16 -16 -35 -29 -42
-29 -6 0 -26 -16 -45 -35 -19 -19 -42 -35 -52 -35 -10 0 -18 -4 -18 -10 0 -5
-7 -10 -16 -10 -8 0 -22 -7 -31 -15 -8 -8 -19 -13 -24 -9 -5 3 -12 -2 -15 -10
-3 -9 -12 -16 -20 -16 -7 0 -30 -9 -50 -21 -21 -11 -50 -19 -68 -17 l-31 3 0
270 c0 205 -3 272 -12 278 -8 5 -13 32 -13 72 0 37 -4 65 -10 65 -5 0 -10 13
-10 29 0 17 -4 33 -10 36 -5 3 -10 15 -10 26 0 10 -4 19 -10 19 -5 0 -10 7
-10 15 0 9 -47 63 -105 120 -76 77 -111 105 -129 105 -14 0 -28 5 -31 10 -4 6
-70 10 -165 10 -95 0 -161 -4 -165 -10 -3 -5 -19 -10 -36 -10 -16 0 -29 -4
-29 -10 0 -5 -9 -10 -20 -10 -11 0 -20 -4 -20 -10 0 -5 -9 -10 -19 -10 -11 0
-23 -4 -26 -10 -3 -5 -14 -10 -25 -10 -10 0 -20 -7 -24 -15 -3 -8 -11 -15 -19
-15 -7 0 -34 -21 -61 -46 -26 -26 -49 -44 -52 -41 -3 3 -21 -10 -39 -29 -18
-19 -40 -34 -48 -34 -9 0 -17 -10 -19 -22 -2 -13 -11 -24 -22 -26 -10 -2 -32
-17 -49 -33 -16 -16 -35 -29 -41 -29 -15 0 -106 -92 -106 -108 0 -6 -40 -51
-90 -99 -49 -48 -90 -95 -90 -103 0 -8 -16 -29 -35 -45 -19 -17 -35 -35 -35
-41 0 -21 -31 -74 -52 -88 -11 -8 -18 -19 -14 -24 3 -5 -6 -20 -19 -32 -14
-13 -25 -32 -25 -42 0 -10 -4 -18 -10 -18 -5 0 -10 -6 -10 -13 0 -21 -30 -77
-41 -77 -5 0 -9 -9 -9 -19 0 -11 -4 -23 -10 -26 -5 -3 -10 -15 -10 -26 0 -10
-4 -19 -10 -19 -5 0 -10 -9 -10 -20 0 -11 -4 -20 -10 -20 -5 0 -10 -8 -10 -19
0 -10 -7 -24 -15 -31 -8 -7 -12 -16 -9 -21 3 -5 -2 -12 -11 -15 -14 -6 -14 -7
1 -18 15 -11 15 -14 0 -28 -9 -9 -16 -24 -16 -32 0 -9 -4 -16 -10 -16 -5 0
-10 -9 -10 -19 0 -11 -4 -23 -10 -26 -5 -3 -10 -19 -10 -36 0 -16 -4 -29 -10
-29 -5 0 -10 -9 -10 -19 0 -11 -6 -22 -12 -24 -10 -4 -9 -8 2 -16 12 -8 12
-12 -3 -29 -10 -10 -15 -26 -12 -34 4 -9 -1 -22 -9 -31 -11 -11 -16 -35 -16
-75 0 -39 -4 -62 -12 -65 -10 -4 -10 -6 0 -6 14 -1 17 -41 2 -41 -5 0 -10 -11
-10 -25 0 -14 4 -25 9 -25 6 0 9 -22 9 -50 -1 -28 -6 -50 -12 -50 -6 0 -4 -5
4 -10 12 -8 13 -13 2 -30 -7 -12 -8 -20 -2 -20 14 0 13 -83 -2 -98 -9 -9 -9
-12 0 -12 9 0 12 -137 12 -585 0 -383 3 -585 10 -585 6 0 10 -9 10 -20 0 -11
-6 -20 -12 -20 -10 0 -10 -2 0 -8 10 -7 13 -111 12 -507 0 -458 1 -500 17
-517 15 -17 15 -21 3 -29 -11 -8 -12 -12 -2 -16 6 -2 12 -22 12 -43 0 -21 5
-42 10 -45 6 -3 10 -19 10 -36 0 -16 5 -29 10 -29 14 0 12 -27 -2 -34 -11 -5
-11 -7 0 -12 6 -3 12 -14 12 -25 0 -10 5 -19 10 -19 6 0 10 -17 10 -39 0 -22
6 -44 15 -51 22 -18 22 -272 0 -294 -8 -8 -15 -28 -15 -45 0 -17 -4 -31 -10
-31 -5 0 -10 -13 -10 -30 0 -16 -4 -30 -10 -30 -5 0 -10 -9 -10 -19 0 -11 -5
-23 -10 -26 -6 -3 -10 -17 -10 -29 0 -13 -7 -29 -15 -36 -8 -7 -15 -21 -15
-31 0 -11 -4 -19 -10 -19 -5 0 -10 -13 -10 -29 0 -17 -4 -33 -10 -36 -5 -3
-10 -15 -10 -26 0 -10 -4 -19 -10 -19 -5 0 -10 -9 -10 -19 0 -10 -7 -21 -15
-25 -8 -3 -12 -12 -9 -21 4 -8 -1 -17 -10 -21 -9 -3 -16 -14 -16 -24 0 -10 -7
-23 -15 -30 -20 -17 -45 -69 -45 -95 0 -12 -11 -31 -25 -41 -16 -12 -25 -29
-25 -46 0 -15 -5 -30 -10 -33 -6 -3 -10 -15 -10 -26 0 -10 -4 -19 -10 -19 -5
0 -10 -9 -10 -19 0 -10 -7 -21 -15 -25 -8 -3 -12 -12 -9 -21 4 -8 -1 -17 -10
-21 -9 -3 -16 -14 -16 -24 0 -11 -5 -22 -10 -25 -6 -3 -10 -15 -10 -26 0 -10
-7 -19 -15 -19 -13 0 -15 -123 -15 -1050 l0 -1050 817 2 818 3 -3 24 c-1 13 3
31 10 40 29 36 38 59 25 64 -8 3 -5 16 10 46 13 24 23 49 23 57 0 8 5 14 10
14 6 0 10 9 10 20 0 11 7 23 16 27 8 3 13 12 10 20 -3 8 5 34 19 59 14 25 25
51 25 59 0 8 5 15 10 15 6 0 10 8 10 19 0 10 11 26 25 35 14 9 25 25 25 36 0
11 5 20 10 20 6 0 10 9 10 19 0 11 5 23 10 26 5 3 10 13 10 22 0 8 11 24 25
35 14 11 25 27 25 36 0 10 9 23 20 30 11 7 20 18 20 26 0 20 30 76 41 76 5 0
9 8 9 18 0 10 14 31 30 47 17 16 30 36 30 46 0 9 7 20 16 23 8 3 13 10 9 15
-6 11 191 211 209 211 7 0 25 13 41 30 16 16 34 30 41 30 6 0 17 7 25 16 8 9
22 14 37 11 14 -3 26 1 29 9 3 8 14 14 24 14 10 0 19 5 19 10 0 14 27 12 34
-2 5 -10 7 -10 12 0 4 8 29 12 72 13 37 0 61 3 55 6 -8 3 -13 23 -13 49 0 24
-4 44 -10 44 -5 0 -10 17 -10 39 0 22 -6 44 -15 51 -9 7 -15 29 -15 51 0 22
-4 39 -10 39 -5 0 -10 13 -10 29 0 17 -4 33 -10 36 -5 3 -10 24 -10 45 0 21
-5 42 -10 45 -6 4 -10 55 -10 119 0 89 -3 116 -15 126 -22 18 -22 222 0 240
10 9 15 32 15 76 0 36 4 64 10 64 6 0 10 10 10 23 0 40 47 120 105 177 30 30
55 62 55 72 0 11 7 18 18 18 10 0 29 12 43 26 13 14 33 30 44 35 11 5 34 18
50 28 17 11 47 20 67 20 20 1 40 6 43 11 3 6 37 10 74 10 61 0 70 3 94 28 15
15 27 33 27 39 0 6 6 16 14 22 7 6 11 22 8 36 -3 17 1 27 12 31 11 4 16 18 16
44 0 22 5 42 10 45 6 4 10 92 10 230 0 138 -4 226 -10 230 -5 3 -10 19 -10 34
0 16 -7 34 -16 42 -8 7 -13 21 -11 30 3 10 -1 23 -9 30 -8 6 -14 24 -14 40 0
16 -4 29 -10 29 -5 0 -10 18 -10 39 0 22 -4 43 -10 46 -5 3 -10 23 -10 44 0
20 -5 42 -12 49 -7 7 -11 34 -9 65 2 39 -2 57 -13 66 -14 12 -16 59 -16 373 0
316 2 359 16 365 10 4 14 16 12 39 -1 18 3 39 10 46 6 6 12 27 12 45 0 18 9
48 20 68 11 20 20 42 20 49 0 8 7 16 15 20 8 3 12 12 9 21 -4 8 1 17 10 21 9
3 16 15 16 25 0 10 5 19 10 19 6 0 10 8 10 18 0 11 9 27 20 37 11 10 20 23 20
30 0 6 16 26 35 45 19 19 35 40 35 47 0 16 78 93 94 93 18 0 36 21 36 42 0 17
12 23 35 18 28 -5 95 13 95 25 0 8 9 30 20 50 11 19 15 35 10 35 -16 0 -12 27
5 34 8 3 12 12 9 21 -4 8 1 17 10 21 9 3 16 14 16 24 0 9 9 25 20 35 11 10 20
26 20 37 0 10 5 18 10 18 6 0 10 13 10 29 0 18 9 35 25 47 14 10 25 27 25 36
0 10 5 18 10 18 6 0 10 9 10 19 0 11 5 23 10 26 6 3 10 14 10 25 0 10 7 20 15
24 8 3 12 11 9 19 -2 7 7 22 21 33 14 10 25 27 25 36 0 10 4 18 9 18 5 0 16
15 24 33 9 17 25 39 36 47 12 8 21 22 21 30 0 9 16 31 35 50 19 18 32 36 30
40 -2 4 11 22 30 40 19 19 35 40 35 47 0 7 25 38 55 68 30 30 55 60 55 68 0
17 32 47 50 47 7 0 73 61 147 135 74 74 141 135 149 135 8 0 14 9 14 20 0 13
7 20 19 20 26 0 31 19 31 109 0 65 3 81 20 96 11 10 20 30 20 45 0 16 7 30 15
34 11 4 14 13 10 29 -4 15 -1 28 9 36 9 8 16 29 16 50 0 25 6 41 20 51 15 11
20 26 20 62 0 26 5 50 10 53 6 3 10 15 10 26 0 11 7 22 15 25 8 4 15 14 15 24
0 11 5 22 10 25 6 3 10 17 10 30 0 13 5 27 10 30 6 3 10 13 10 22 0 8 11 24
25 35 14 11 25 27 25 36 1 9 19 35 40 57 22 22 40 45 40 51 0 5 16 25 35 44
19 19 35 39 35 45 0 6 29 40 65 75 36 35 65 69 65 75 0 6 24 34 53 62 45 45
58 52 97 55 42 3 45 5 48 33 2 17 8 34 13 40 5 5 9 42 9 82 0 42 4 73 10 73
15 0 13 117 -2 123 -10 3 -10 9 0 26 6 11 12 34 12 50 0 16 -6 31 -12 34 -10
3 -10 9 0 26 7 12 8 21 2 21 -5 0 -10 7 -10 15 0 8 5 15 10 15 6 0 10 7 10 15
0 8 -4 15 -10 15 -6 0 -10 37 -10 90 0 53 -4 90 -10 90 -5 0 -10 13 -10 29 0
16 -7 34 -16 42 -9 7 -14 22 -11 35 2 14 -2 25 -9 28 -8 3 -14 15 -14 26 0 11
-4 20 -10 20 -5 0 -10 9 -10 19 0 10 -16 33 -35 50 -19 17 -35 36 -35 44 0 15
-41 57 -56 57 -5 0 -50 40 -99 90 -50 49 -97 90 -105 90 -9 0 -22 9 -30 20 -8
11 -23 20 -33 20 -9 0 -20 7 -23 15 -4 8 -15 15 -25 15 -10 0 -19 5 -19 10 0
6 -9 10 -19 10 -11 0 -23 5 -26 10 -3 6 -15 10 -26 10 -10 0 -19 5 -19 10 0 6
-7 10 -16 10 -8 0 -22 7 -30 15 -9 8 -31 15 -50 15 -22 0 -37 6 -40 15 -5 13
-49 15 -305 15 -257 0 -300 -2 -305 -15z m-3776 -7197 c3 -15 -4 -18 -37 -18
-35 0 -41 3 -41 21 0 17 5 20 37 17 27 -2 39 -8 41 -20z"/>
    <path d="M5641 7566 c-20 -24 -6 -46 29 -46 28 0 31 3 28 28 -4 32 -37 42 -57
18z"/>
    <path d="M5600 7468 c-62 -32 -71 -68 -27 -113 l32 -33 -1 -163 c-2 -222 -12
-370 -29 -454 -8 -38 -21 -113 -30 -165 -9 -52 -20 -111 -25 -130 -5 -19 -18
-91 -29 -160 -11 -69 -27 -159 -35 -200 -8 -41 -20 -109 -26 -150 -6 -41 -18
-103 -26 -137 -18 -81 -18 -113 1 -113 23 0 18 -19 -14 -49 -22 -20 -32 -44
-46 -106 -9 -44 -24 -107 -33 -140 -20 -80 -29 -124 -56 -296 -33 -203 -85
-462 -111 -554 -8 -27 -20 -88 -25 -135 -6 -47 -19 -116 -29 -155 -10 -38 -22
-98 -25 -132 -7 -64 -28 -173 -45 -231 -6 -18 -13 -65 -16 -105 -4 -40 -16
-117 -27 -172 -11 -55 -24 -118 -28 -140 -24 -128 -42 -88 -39 88 3 159 1 170
-36 252 -13 28 -30 78 -38 112 -17 65 -105 228 -173 319 -23 30 -56 84 -75
120 -19 36 -56 93 -84 127 -27 34 -59 87 -72 117 -29 73 -61 111 -116 140
l-46 24 -26 -24 c-22 -20 -26 -31 -21 -58 2 -18 14 -45 25 -60 11 -16 29 -53
41 -83 22 -56 79 -149 92 -149 4 0 20 -24 34 -52 15 -29 55 -96 89 -148 58
-89 84 -133 141 -239 13 -24 28 -70 33 -101 5 -31 20 -76 32 -101 21 -39 24
-59 26 -192 1 -106 7 -170 22 -230 11 -45 25 -116 31 -157 7 -41 19 -90 26
-109 17 -40 18 -90 3 -128 -6 -15 -15 -58 -20 -95 -4 -36 -18 -93 -29 -125
-12 -32 -24 -92 -27 -134 -5 -68 -4 -78 13 -87 28 -15 23 -62 -9 -94 -14 -14
-29 -39 -32 -55 -4 -15 -11 -39 -16 -52 -15 -36 -39 -179 -39 -231 0 -25 -9
-72 -19 -105 -42 -128 -61 -196 -61 -216 0 -11 -9 -37 -20 -59 -11 -22 -20
-44 -20 -50 0 -6 -20 -40 -45 -77 -25 -36 -45 -70 -45 -77 0 -24 -49 -128 -71
-152 -26 -28 -138 -89 -147 -80 -13 14 -42 114 -42 148 0 21 -7 55 -15 76 -12
29 -13 45 -5 66 13 36 13 172 -1 216 -6 19 -15 60 -19 90 -13 86 -69 281 -93
321 -41 68 -92 134 -139 180 -27 26 -48 56 -48 67 0 26 -33 62 -58 62 -34 0
-52 -11 -67 -41 -33 -62 -4 -149 65 -200 16 -13 32 -31 36 -41 3 -11 25 -41
49 -68 36 -40 44 -57 50 -106 4 -33 13 -73 20 -91 23 -55 48 -261 40 -322 -16
-112 -4 -248 29 -340 9 -24 16 -68 16 -98 0 -100 40 -143 132 -143 42 0 58 -4
58 -13 0 -19 -42 -115 -69 -160 -41 -67 -153 -349 -173 -437 -10 -47 -26 -95
-34 -107 -8 -12 -20 -47 -28 -76 -8 -30 -23 -72 -34 -93 -11 -22 -23 -54 -27
-71 l-7 -33 90 0 90 0 20 43 c11 24 24 61 28 83 4 21 20 65 35 96 19 37 29 73
29 101 0 44 15 90 72 222 16 39 36 94 44 123 8 29 30 76 48 105 18 29 43 79
55 112 78 204 86 219 127 242 21 13 46 25 54 28 8 3 33 15 55 27 22 11 83 42
135 68 79 40 322 204 340 230 12 17 291 200 306 200 20 0 82 45 113 82 29 36
23 66 -22 108 -41 38 -70 38 -130 0 -26 -17 -54 -30 -61 -30 -7 0 -31 -12 -52
-27 -21 -14 -78 -53 -126 -85 -47 -32 -97 -71 -110 -86 -13 -15 -40 -36 -61
-47 -21 -11 -59 -41 -84 -67 -26 -27 -56 -48 -66 -48 -10 0 -31 -8 -45 -19
-44 -30 -134 -73 -140 -66 -4 3 2 21 12 38 32 54 125 319 131 373 1 13 7 29
13 37 16 18 33 90 42 177 5 41 16 100 24 130 9 30 16 65 16 78 0 13 5 32 10
43 6 10 12 40 14 66 8 108 29 242 48 298 11 33 22 80 25 105 4 35 13 54 44 86
39 39 59 86 59 133 0 14 13 52 29 85 16 34 35 76 42 95 7 19 28 54 46 78 18
24 33 46 33 49 0 6 44 63 98 128 17 22 32 45 32 51 0 14 84 94 152 145 25 19
70 69 100 110 29 41 80 100 113 130 33 30 102 97 152 148 51 50 100 92 108 92
60 0 269 139 300 200 21 40 20 45 -21 90 -30 33 -43 40 -74 40 -54 0 -116 -29
-186 -87 -32 -27 -86 -68 -119 -91 -68 -47 -372 -352 -425 -426 -19 -27 -71
-77 -114 -110 -59 -46 -90 -79 -123 -131 -40 -64 -63 -89 -63 -68 0 16 41 280
56 358 9 44 20 118 26 165 5 47 16 105 23 130 20 68 43 186 51 265 3 39 15 93
25 120 18 51 28 97 34 157 2 18 10 60 18 93 26 104 48 236 56 340 5 57 16 113
25 131 9 17 23 69 32 115 8 46 24 116 34 154 10 39 23 95 29 125 6 30 18 89
27 130 8 41 19 98 23 125 5 28 23 140 40 250 18 110 39 243 48 295 8 52 21
124 29 160 42 191 57 463 40 713 -6 104 -15 131 -50 159 -28 23 -43 22 -96 -4z"/>
    <path d="M15295 7420 c-3 -5 -28 -10 -54 -10 -41 0 -52 -5 -81 -35 -19 -19
-39 -35 -46 -35 -6 0 -40 -29 -75 -65 -35 -36 -72 -65 -83 -65 -11 0 -16 -5
-13 -13 3 -8 -17 -35 -44 -61 -27 -26 -47 -51 -45 -55 3 -4 -15 -27 -39 -51
-31 -30 -45 -53 -45 -71 0 -16 -9 -33 -25 -45 -14 -10 -25 -25 -25 -32 0 -7
-9 -22 -20 -34 -15 -16 -20 -36 -20 -78 0 -31 -5 -61 -10 -66 -7 -7 -10 -157
-10 -429 0 -272 3 -422 10 -429 5 -5 10 -23 10 -38 0 -15 5 -28 10 -28 6 0 10
-25 10 -55 0 -30 5 -55 10 -55 6 0 10 -12 10 -26 0 -14 7 -33 16 -41 10 -10
13 -25 10 -39 -4 -13 -2 -24 3 -24 11 0 41 -56 41 -77 0 -7 5 -13 10 -13 6 0
10 -16 10 -35 0 -19 5 -35 10 -35 6 0 10 -7 10 -16 0 -22 25 -44 49 -44 23 0
30 -35 9 -43 -10 -4 -10 -6 0 -6 6 -1 12 -10 12 -21 0 -11 5 -20 10 -20 6 0
10 -8 10 -19 0 -10 7 -24 15 -31 8 -7 12 -16 9 -21 -6 -10 74 -88 91 -89 17
-1 65 -48 65 -64 0 -8 5 -18 10 -21 6 -3 10 -13 10 -21 0 -18 94 -114 112
-114 8 0 27 -13 43 -30 16 -16 34 -30 40 -30 6 0 31 -20 55 -45 24 -25 49 -45
55 -45 15 -1 95 -79 95 -93 0 -7 16 -28 35 -47 19 -19 35 -40 35 -48 0 -8 25
-37 55 -66 30 -28 55 -57 55 -64 0 -7 41 -53 90 -101 l90 -89 0 -95 c0 -89 -1
-95 -25 -113 -21 -16 -25 -27 -25 -71 0 -29 -4 -53 -10 -53 -5 0 -10 -16 -10
-35 l0 -35 -55 0 c-36 0 -66 7 -90 20 -20 11 -51 20 -71 20 -22 0 -37 6 -40
15 -4 9 -19 15 -40 15 -27 0 -34 4 -34 20 0 11 -6 20 -12 20 -18 1 -118 98
-118 115 0 8 -4 17 -10 20 -5 3 -10 13 -10 21 0 8 -51 65 -112 126 -62 62
-112 117 -110 124 1 6 -4 14 -13 18 -8 3 -15 13 -15 23 0 23 -240 263 -263
263 -9 0 -17 5 -17 10 0 6 -9 10 -20 10 -10 0 -23 7 -28 16 -29 52 -32 -3 -32
-570 0 -498 -2 -575 -15 -586 -12 -10 -15 -39 -15 -141 0 -74 -4 -130 -10
-134 -6 -4 -10 -58 -10 -130 0 -72 4 -126 10 -130 6 -3 10 -33 10 -65 0 -52 4
-64 31 -95 22 -25 39 -35 60 -35 16 0 29 -4 29 -10 0 -5 7 -10 15 -10 9 0 28
-11 43 -25 23 -21 36 -25 89 -25 48 0 63 3 63 14 0 8 25 38 55 67 30 28 55 60
55 71 0 10 7 21 15 24 8 4 15 12 15 19 0 25 31 72 80 120 27 27 50 54 50 60 0
6 16 26 35 45 19 19 35 40 35 48 0 21 26 42 54 42 14 0 28 5 31 10 4 6 76 10
182 10 l176 0 123 -124 c68 -68 124 -130 124 -138 0 -8 16 -29 35 -48 28 -27
35 -42 35 -71 0 -21 5 -41 10 -44 6 -4 10 -117 9 -308 0 -280 -2 -304 -20
-332 -10 -16 -23 -39 -28 -50 -5 -11 -21 -31 -35 -44 -16 -15 -26 -35 -26 -52
0 -15 -5 -29 -11 -31 -5 -2 -11 -10 -12 -18 -2 -8 -7 -22 -12 -30 -17 -26 -55
-103 -55 -111 0 -12 -82 -89 -94 -89 -18 0 -66 -53 -66 -73 0 -9 -4 -17 -10
-17 -5 0 -10 -9 -10 -20 0 -11 -4 -20 -10 -20 -5 0 -10 -8 -10 -18 0 -10 -29
-47 -65 -82 -36 -36 -72 -78 -80 -94 -21 -42 -22 -438 -1 -455 8 -7 12 -20 9
-30 -2 -9 3 -23 11 -30 9 -8 16 -19 16 -26 0 -6 9 -20 20 -30 11 -10 20 -31
20 -46 0 -15 5 -31 10 -34 6 -3 10 -17 10 -30 0 -13 4 -26 9 -30 14 -8 41 -65
41 -85 0 -19 47 -117 60 -125 5 -3 7 -12 4 -19 -3 -7 2 -16 10 -19 9 -4 16
-16 16 -27 0 -11 5 -20 10 -20 6 0 10 -7 10 -15 0 -8 9 -30 20 -50 11 -20 20
-42 20 -49 0 -8 7 -17 16 -20 11 -4 14 -13 10 -30 -4 -15 0 -28 9 -36 11 -9
15 -35 15 -106 l0 -94 1565 0 1565 0 0 55 c0 34 4 55 11 55 13 0 3 69 -12 84
-5 6 -9 16 -9 23 0 17 -137 153 -154 153 -7 0 -21 9 -31 20 -10 11 -23 20 -29
20 -18 1 -54 35 -58 55 -2 11 -14 25 -26 31 -13 6 -38 26 -56 43 -17 17 -42
31 -55 31 -13 0 -31 8 -40 19 -9 10 -25 20 -36 22 -14 3 -21 14 -23 37 -2 17
-7 32 -13 32 -5 0 -9 33 -9 73 0 65 -3 76 -25 97 -20 19 -25 33 -25 72 0 26
-4 48 -10 48 -6 0 -10 40 -10 100 l0 100 35 34 c19 19 35 41 35 48 0 8 20 33
45 57 25 24 42 47 39 52 -10 17 7 49 26 49 10 0 22 5 25 10 3 6 15 10 26 10
10 0 19 5 19 10 0 6 8 10 18 10 9 0 26 11 36 25 10 14 25 25 32 25 7 0 29 9
49 20 20 11 42 20 50 20 8 0 15 5 15 10 0 6 7 10 15 10 12 0 15 14 15 68 0 60
-3 71 -25 92 -15 14 -25 35 -25 52 0 15 -4 28 -10 28 -5 0 -10 17 -10 38 0 32
-7 45 -45 82 -25 24 -45 52 -45 62 0 10 -4 18 -10 18 -5 0 -10 6 -10 13 0 21
-28 72 -50 92 -11 10 -20 23 -20 30 0 6 -16 26 -35 45 -19 18 -32 36 -30 40 3
4 -2 13 -10 20 -8 7 -15 24 -15 39 0 20 -22 48 -89 115 -60 59 -87 94 -84 105
2 10 -3 23 -11 30 -9 8 -16 20 -16 29 0 8 -9 22 -19 31 -10 9 -21 28 -23 41
-3 24 -7 25 -93 30 l-89 5 -7 33 c-4 18 -14 41 -23 51 -9 10 -16 27 -16 39 0
12 -4 22 -9 22 -19 0 -23 41 -7 59 20 22 20 38 1 58 -14 14 -14 17 1 34 16 18
16 19 0 19 -30 0 -66 46 -66 83 0 19 -7 40 -15 47 -8 7 -12 16 -9 21 3 5 -6
20 -20 33 -14 13 -26 31 -26 40 0 9 -4 16 -10 16 -6 0 -10 30 -10 70 0 67 -8
93 -38 132 -8 9 -11 22 -7 27 3 6 -1 14 -9 17 -9 3 -16 15 -16 25 0 10 -4 19
-10 19 -6 0 -10 28 -10 64 0 36 -4 68 -10 71 -5 3 -10 28 -10 54 0 31 -5 53
-15 61 -8 7 -13 16 -10 20 3 4 -2 13 -10 20 -8 7 -15 23 -15 36 0 12 -4 26
-10 29 -5 3 -10 44 -10 90 0 46 -4 87 -10 90 -5 3 -10 23 -10 43 -1 26 -8 43
-24 56 -21 18 -23 26 -19 78 5 47 3 59 -11 64 -14 5 -16 38 -16 309 0 259 2
304 15 315 9 8 13 21 9 32 -7 22 25 58 51 58 8 0 15 5 15 10 0 6 110 10 310
10 300 0 310 1 310 19 0 11 -4 23 -10 26 -5 3 -10 14 -10 23 0 10 -9 24 -20
32 -11 8 -20 22 -20 31 0 9 -7 22 -15 29 -10 8 -15 26 -13 48 1 21 -3 37 -10
40 -7 2 -12 21 -12 41 0 25 -7 44 -20 56 -11 10 -20 25 -20 33 0 8 -11 23 -25
34 -16 13 -25 29 -25 48 0 16 -4 32 -10 35 -5 3 -10 17 -10 30 0 13 -4 27 -10
30 -5 3 -10 19 -10 35 0 16 -4 32 -10 35 -5 3 -10 17 -10 29 0 13 -7 29 -15
36 -8 7 -13 16 -10 20 3 4 -2 13 -10 20 -8 7 -15 24 -15 39 0 31 -16 51 -42
51 -14 0 -18 8 -18 40 0 33 -3 40 -19 40 -11 0 -23 -4 -26 -10 -3 -5 -15 -10
-26 -10 -10 0 -19 -4 -19 -10 0 -5 -9 -10 -19 -10 -11 0 -28 -11 -39 -25 -11
-14 -26 -25 -34 -25 -8 0 -34 -20 -58 -45 -25 -25 -53 -45 -65 -45 -12 0 -43
-20 -68 -44 -44 -41 -47 -47 -47 -94 0 -28 -4 -54 -10 -57 -5 -3 -10 -33 -10
-66 0 -38 -4 -61 -12 -64 -10 -4 -12 -66 -10 -274 2 -231 0 -270 -13 -281 -8
-7 -15 -21 -15 -31 0 -11 -4 -19 -10 -19 -6 0 -10 -71 -10 -194 0 -119 -4
-197 -10 -201 -5 -3 -10 -28 -10 -55 0 -27 -4 -52 -10 -55 -5 -3 -10 -19 -10
-36 0 -16 -4 -29 -10 -29 -5 0 -10 -8 -10 -19 0 -10 -11 -27 -25 -37 -14 -10
-25 -26 -25 -36 0 -16 -50 -48 -77 -48 -7 0 -13 -4 -13 -10 0 -6 -27 -10 -60
-10 -33 0 -60 4 -60 10 0 6 -9 10 -19 10 -11 0 -23 5 -26 10 -3 6 -23 10 -44
10 -22 0 -44 6 -51 15 -8 9 -30 15 -57 15 -39 0 -49 5 -83 40 -21 22 -45 40
-52 40 -17 0 -53 41 -50 56 1 7 -4 14 -13 18 -8 3 -15 14 -15 24 0 10 -21 37
-46 61 -43 40 -46 45 -42 87 2 29 -1 45 -9 49 -18 6 -19 380 0 392 8 6 12 45
12 138 0 93 -4 132 -12 138 -9 6 -13 39 -13 107 0 69 4 100 13 104 10 5 10 7
0 12 -16 7 -17 106 -2 121 16 16 17 182 2 188 -10 3 -13 67 -13 270 0 170 -4
265 -10 265 -5 0 -10 25 -10 55 0 30 -4 55 -10 55 -5 0 -10 9 -10 20 0 11 -4
20 -10 20 -5 0 -10 9 -10 19 0 11 -4 22 -9 26 -12 7 -41 64 -41 79 0 7 -9 18
-20 26 -13 9 -20 26 -20 46 0 38 -17 74 -59 119 -17 20 -31 45 -31 60 0 14 -4
25 -10 25 -5 0 -10 8 -10 18 0 10 -25 42 -55 72 -30 30 -55 60 -55 66 0 16
-410 424 -426 424 -7 0 -16 5 -19 10 -3 6 -15 10 -26 10 -10 0 -19 5 -19 10 0
6 -93 10 -259 10 -163 0 -262 -4 -266 -10z"/>
    <path d="M18637 7290 c-38 -30 -45 -70 -41 -230 4 -178 4 -204 2 -305 -2 -81
17 -201 33 -211 5 -3 9 -23 9 -45 0 -37 25 -126 55 -194 7 -16 23 -64 35 -105
12 -41 28 -88 35 -105 7 -16 20 -61 29 -100 8 -38 24 -95 35 -126 11 -31 24
-82 30 -115 5 -32 23 -98 40 -146 17 -47 31 -95 31 -106 0 -10 11 -35 24 -54
15 -23 21 -40 15 -50 -11 -20 18 -125 56 -199 9 -16 27 -66 41 -111 14 -46 36
-110 48 -143 13 -33 37 -107 55 -165 18 -58 39 -117 47 -132 7 -14 14 -38 14
-54 0 -15 22 -109 49 -208 27 -100 57 -217 66 -261 9 -44 21 -93 25 -110 5
-16 14 -79 20 -140 9 -80 25 -151 60 -260 81 -251 111 -382 126 -539 3 -38 8
-75 11 -83 9 -22 -34 -15 -94 17 -31 17 -61 30 -68 30 -6 0 -20 10 -31 21 -25
28 -106 87 -167 123 -27 15 -70 49 -96 74 -41 42 -216 180 -260 207 -9 6 -32
24 -52 40 -20 17 -53 41 -74 55 -20 14 -60 44 -88 68 -62 52 -202 152 -213
152 -4 0 -36 30 -71 66 l-63 67 -47 -6 c-59 -6 -83 -33 -83 -91 0 -38 5 -46
83 -121 45 -44 98 -88 117 -97 19 -9 60 -39 90 -65 83 -73 187 -154 265 -209
65 -44 111 -83 286 -235 35 -31 94 -75 130 -98 37 -23 77 -56 89 -75 27 -38
78 -76 104 -76 10 0 36 -13 59 -29 23 -16 67 -36 98 -45 43 -12 63 -24 83 -50
14 -19 36 -36 48 -38 31 -4 45 -50 148 -493 23 -99 55 -222 71 -274 40 -127
65 -246 78 -364 10 -90 39 -178 62 -193 5 -3 9 187 9 446 0 417 -1 456 -20
523 -21 76 -95 397 -105 457 -3 19 -10 46 -15 60 -4 14 -14 52 -21 85 -7 33
-16 68 -21 77 -5 10 -15 66 -23 126 -23 173 -73 377 -124 507 -35 89 -46 131
-71 291 -23 148 -55 306 -75 379 -8 28 -21 75 -29 105 -8 30 -24 87 -36 125
-12 39 -28 95 -36 125 -8 30 -21 71 -28 90 -8 19 -20 56 -27 83 -6 26 -16 50
-20 53 -5 3 -9 17 -9 32 0 15 -9 41 -19 59 -11 17 -27 62 -37 100 -9 37 -27
89 -40 115 -13 26 -24 54 -24 62 0 9 -9 35 -19 58 -11 24 -24 61 -29 83 -6 22
-20 70 -31 108 -12 37 -21 76 -21 86 0 10 -9 38 -19 62 -11 24 -33 94 -49 154
-64 233 -134 462 -158 515 -14 30 -29 70 -33 90 -5 19 -17 62 -26 95 -36 125
-55 259 -54 365 3 201 -2 335 -12 367 -12 38 -52 73 -84 73 -12 0 -34 -9 -48
-20z m673 -2588 c0 -13 -12 -22 -22 -16 -10 6 -1 24 13 24 5 0 9 -4 9 -8z"/>
    <path d="M4515 5800 c-3 -5 -15 -10 -26 -10 -10 0 -19 -4 -19 -10 0 -5 -9 -10
-20 -10 -11 0 -20 -4 -20 -9 0 -5 -10 -13 -22 -17 -13 -4 -35 -20 -49 -35 -15
-16 -33 -29 -40 -29 -14 0 -139 -117 -132 -124 3 -2 20 -2 39 1 25 4 35 2 40
-11 3 -9 14 -16 23 -16 9 0 37 -20 61 -45 24 -24 46 -42 50 -40 4 2 22 -11 40
-30 38 -39 50 -43 50 -17 0 11 9 27 20 37 13 12 20 31 20 57 0 21 5 38 10 38
6 0 10 53 10 140 0 115 -3 140 -14 140 -8 0 -18 -4 -21 -10z"/>
    <path d="M12351 5766 c-28 -15 -50 -52 -51 -82 0 -12 13 -37 29 -57 33 -43 44
-71 59 -151 9 -43 22 -73 54 -113 31 -41 43 -67 49 -107 8 -62 110 -289 167
-373 54 -79 125 -225 161 -331 17 -48 51 -125 76 -172 24 -47 87 -171 139
-276 52 -104 127 -237 166 -295 40 -57 85 -129 100 -159 15 -30 48 -95 73
-145 25 -49 62 -139 82 -200 21 -60 47 -128 59 -150 27 -52 37 -75 31 -75 -3
0 -32 26 -65 58 -32 32 -72 65 -87 73 -28 14 -117 78 -210 151 -31 24 -78 78
-115 131 -71 104 -147 187 -198 214 -21 12 -53 46 -80 87 -61 91 -105 113
-175 86 -54 -20 -52 -95 4 -127 15 -9 41 -37 57 -62 15 -25 71 -86 123 -136
52 -49 116 -122 142 -162 63 -97 133 -178 178 -205 83 -50 201 -150 308 -259
87 -90 129 -125 181 -151 58 -31 70 -42 93 -87 15 -29 37 -64 51 -79 26 -28
68 -148 68 -193 0 -15 11 -43 25 -63 18 -26 25 -51 25 -84 1 -26 8 -65 16 -87
9 -22 24 -69 35 -104 10 -35 22 -68 27 -75 5 -6 19 -36 31 -66 13 -30 40 -93
61 -140 21 -47 43 -99 50 -117 9 -24 19 -33 46 -37 37 -7 41 -18 21 -56 -7
-14 -10 -32 -6 -40 4 -8 12 -58 19 -110 7 -52 21 -120 32 -150 11 -30 26 -86
33 -125 21 -105 155 -486 194 -549 11 -17 26 -58 34 -91 8 -33 27 -98 42 -145
15 -47 37 -128 49 -180 13 -52 32 -119 42 -147 l19 -53 97 0 c54 0 98 2 98 5
0 11 -43 121 -51 130 -5 5 -9 25 -9 45 0 20 -4 40 -8 45 -16 20 -33 86 -27
106 8 25 -26 138 -103 339 -30 80 -63 167 -73 193 -10 27 -25 60 -34 73 -8 13
-15 35 -15 49 0 15 -13 65 -30 112 -16 46 -30 93 -30 103 0 26 48 80 70 80 48
0 113 93 127 184 3 23 19 65 34 95 21 38 29 68 29 103 0 51 24 97 90 174 25
29 63 112 74 164 3 14 23 54 46 90 84 135 117 210 170 378 21 69 22 75 6 90
-10 11 -19 13 -24 7 -4 -6 -26 -22 -48 -37 -51 -33 -103 -96 -139 -168 -15
-30 -42 -80 -60 -110 -88 -149 -114 -199 -121 -226 -4 -16 -37 -69 -74 -119
-69 -93 -84 -122 -95 -190 -4 -22 -22 -69 -40 -105 -18 -36 -38 -90 -44 -120
-12 -58 -47 -127 -59 -115 -4 3 -7 20 -8 37 -2 36 -18 92 -45 160 -11 26 -19
56 -19 67 0 11 -4 22 -9 25 -4 3 -14 27 -21 53 -8 27 -19 57 -26 68 -7 11 -19
43 -27 70 -20 66 -44 122 -57 130 -5 3 -21 45 -36 93 -14 48 -32 101 -39 117
-7 17 -21 57 -31 89 -18 55 -39 84 -89 120 -17 12 -18 17 -7 28 11 11 16 10
28 -6 22 -31 27 -12 14 56 -7 35 -12 74 -11 88 1 14 2 39 3 56 1 18 -8 44 -20
61 -12 17 -45 77 -72 134 -28 57 -55 111 -60 119 -6 8 -22 38 -36 65 -15 28
-35 61 -45 74 -11 13 -19 32 -19 43 0 10 -10 35 -23 56 -13 20 -31 62 -40 92
-10 31 -26 69 -36 86 -10 17 -22 46 -25 65 -7 34 -42 121 -76 189 -90 177
-107 207 -224 379 -26 40 -86 150 -133 244 -47 95 -102 201 -123 237 -20 36
-45 90 -55 120 -10 30 -35 91 -56 135 -20 44 -44 96 -53 115 -17 39 -59 111
-86 150 -39 56 -121 234 -140 306 -24 89 -39 121 -80 168 -21 23 -34 54 -44
99 -29 141 -126 242 -195 203z"/>
    <path d="M13828 4443 l-38 -39 0 -157 0 -157 23 0 c13 0 28 -5 35 -12 6 -6 14
-9 17 -6 3 3 4 96 3 207 l-3 202 -37 -38z"/>
    <path d="M14184 4395 c-25 -25 -26 -29 -23 -143 3 -160 -7 -365 -21 -437 -6
-32 -23 -81 -36 -107 -14 -27 -29 -81 -35 -121 -19 -142 -47 -249 -75 -292 -9
-14 -18 -49 -20 -78 -1 -29 -7 -94 -12 -145 -5 -52 -6 -108 -2 -125 4 -18 7
-35 8 -39 1 -5 2 -19 2 -32 0 -14 12 -38 26 -55 34 -41 73 -42 107 -1 28 33
29 38 48 290 10 131 15 163 37 205 34 68 42 97 52 195 6 56 21 118 45 180 l36
95 -1 230 c0 127 -5 248 -10 270 -5 22 -10 54 -10 72 0 25 -6 35 -32 47 -42
22 -55 20 -84 -9z"/>
    <path d="M12957 1929 c-50 -52 -57 -64 -57 -99 0 -22 -4 -40 -10 -40 -5 0 -10
-15 -10 -34 0 -19 5 -38 10 -41 6 -3 10 -42 10 -86 0 -46 -4 -79 -10 -79 -5 0
-10 -11 -10 -24 0 -14 5 -28 10 -31 6 -3 10 -38 10 -76 0 -70 0 -70 45 -115
25 -24 45 -50 45 -57 0 -16 72 -87 88 -87 18 0 75 -57 68 -68 -9 -15 71 -82
98 -82 14 0 28 -4 31 -10 3 -5 28 -10 54 -10 40 0 52 -4 67 -25 10 -14 24 -25
30 -25 19 0 70 -29 89 -50 10 -11 23 -20 30 -20 6 0 24 -13 40 -30 16 -16 35
-30 42 -30 7 0 29 -16 47 -35 19 -19 41 -35 50 -35 9 0 16 -4 16 -10 0 -5 19
-10 41 -10 35 0 46 -5 72 -35 16 -19 38 -35 48 -35 11 0 19 -4 19 -10 0 -5 11
-10 23 -10 30 0 78 -24 102 -50 10 -11 26 -20 37 -20 10 0 18 -4 18 -10 0 -5
6 -10 14 -10 29 0 26 20 -9 54 -21 21 -35 45 -35 59 0 14 -7 30 -15 37 -8 7
-13 16 -10 20 2 4 -7 18 -20 30 -14 13 -25 32 -25 42 0 10 -4 18 -10 18 -5 0
-10 8 -10 18 0 9 -21 36 -45 60 -25 24 -45 47 -45 51 0 12 -51 111 -61 117 -5
3 -9 13 -9 22 0 10 -9 24 -20 32 -11 8 -20 24 -20 36 0 35 -26 76 -90 139 -55
54 -90 103 -90 127 0 14 -48 58 -63 58 -22 0 -87 77 -87 102 0 16 -26 49 -80
103 -44 44 -80 84 -80 89 0 14 -51 66 -65 66 -6 0 -40 29 -75 65 -35 36 -72
65 -82 65 -10 0 -18 4 -18 10 0 5 -8 14 -18 19 -14 7 -28 -2 -75 -50z"/>
  </g>
</svg>
