<?xml version="1.0" standalone="no"?>
<!DOCTYPE svg PUBLIC "-//W3C//DTD SVG 20010904//EN"
  "http://www.w3.org/TR/2001/REC-SVG-20010904/DTD/svg10.dtd">
<svg version="1.0"
     xmlns="http://www.w3.org/2000/svg"
     width="current"
     height="current"
     viewBox="0 0 1080.000000 169.000000"
     preserveAspectRatio="xMidYMid meet">

  <g transform="translate(0.000000,169.000000) scale(0.100000,-0.100000)"
     fill="current" stroke="none">
    <path d="M1537 1660 c-126 -32 -242 -152 -286 -295 -11 -34 -36 -140 -56 -235
-20 -96 -55 -258 -76 -360 -106 -496 -110 -523 -84 -620 17 -63 39 -96 85
-128 30 -20 45 -22 165 -22 l132 0 59 38 c72 47 137 129 174 221 16 39 45 146
64 238 19 92 56 265 81 383 106 496 110 527 80 628 -31 103 -102 153 -225 158
-41 2 -92 -1 -113 -6z m83 -250 c33 -33 35 -16 -85 -580 -25 -118 -59 -280
-76 -359 -41 -194 -65 -241 -125 -241 -25 0 -38 7 -51 26 -18 29 -20 20 92
544 25 118 59 280 76 360 36 172 54 224 87 250 32 25 57 25 82 0z"/>
    <path d="M4847 1659 c-63 -15 -118 -48 -173 -106 -89 -93 -114 -161 -179 -473
-13 -63 -45 -212 -70 -330 -101 -472 -106 -502 -100 -560 9 -73 35 -129 74
-163 31 -26 37 -27 146 -27 112 0 114 0 163 34 l50 33 7 -33 6 -34 74 0 c69 0
75 2 80 22 15 67 48 222 60 283 8 39 34 167 59 285 25 118 46 221 46 228 0 10
-38 12 -172 10 l-172 -3 -18 -85 c-26 -129 -26 -130 26 -130 l44 0 -10 -47
c-30 -154 -61 -279 -74 -305 -17 -32 -66 -58 -96 -50 -50 13 -48 50 12 327 45
209 95 446 140 657 33 157 51 203 91 223 37 20 52 19 72 -3 23 -25 21 -68 -8
-212 -14 -68 -25 -129 -25 -137 0 -11 23 -13 123 -11 l122 3 27 120 c30 139
36 266 13 341 -36 120 -178 181 -338 143z"/>
    <path d="M403 1498 c-18 -84 -48 -229 -68 -323 -20 -93 -51 -242 -70 -330 -19
-88 -55 -257 -80 -375 -56 -264 -95 -452 -95 -462 0 -5 51 -8 113 -8 l112 0
28 133 c16 72 51 238 78 367 72 340 92 430 96 427 3 -4 15 -175 38 -577 8
-146 18 -284 21 -307 l5 -43 109 0 c105 0 110 1 115 22 8 38 55 257 80 378 13
63 45 212 70 330 25 118 57 267 70 330 46 222 113 535 120 563 l7 27 -116 0
c-112 0 -116 -1 -121 -22 -5 -24 -56 -264 -126 -593 -65 -305 -66 -311 -72
-295 -3 8 -15 175 -26 370 -12 195 -24 397 -27 448 l-6 92 -112 0 -112 0 -31
-152z"/>
    <path d="M2026 1633 c-7 -23 -46 -212 -46 -224 0 -5 50 -9 110 -9 67 0 110 -4
110 -10 0 -6 -9 -52 -21 -103 -11 -50 -34 -157 -50 -237 -48 -230 -75 -360
-124 -590 -52 -242 -95 -449 -95 -456 0 -2 56 -4 124 -4 l125 0 11 58 c12 61
60 290 115 547 19 88 52 248 75 355 58 277 90 422 96 432 3 4 54 8 114 8 105
0 110 1 115 23 3 12 14 60 25 107 11 47 20 93 20 103 0 16 -23 17 -349 17
-324 0 -350 -1 -355 -17z"/>
    <path d="M3480 1625 c-5 -14 -102 -280 -216 -592 -113 -313 -241 -666 -285
-786 -43 -120 -79 -224 -79 -233 0 -12 18 -14 118 -12 l117 3 55 162 55 163
114 0 114 0 -7 -102 c-4 -57 -9 -131 -13 -165 l-6 -63 122 0 c66 0 121 3 121
8 0 4 13 210 30 457 16 248 34 542 40 655 6 113 15 266 20 340 6 74 10 147 10
163 l0 27 -150 0 -150 0 -10 -25z m37 -753 l-21 -272 -79 0 c-71 0 -78 2 -72
18 4 9 44 125 90 257 93 269 96 277 101 273 2 -2 -7 -126 -19 -276z"/>
    <path d="M5611 1623 c-6 -16 -43 -116 -81 -223 -137 -376 -322 -887 -411
-1131 -49 -135 -89 -251 -89 -257 0 -9 34 -12 118 -12 l117 0 56 163 56 162
113 3 113 3 -7 -113 c-4 -62 -10 -137 -13 -166 l-6 -53 124 3 124 3 7 125 c13
217 37 614 57 930 11 168 23 369 27 448 l7 142 -151 0 -150 0 -11 -27z m44
-689 c-9 -115 -18 -237 -21 -271 l-6 -63 -75 0 -75 0 7 28 c11 48 178 523 182
519 2 -2 -4 -98 -12 -213z"/>
    <path d="M6276 1638 c-2 -7 -23 -103 -46 -213 -23 -110 -57 -272 -76 -360 -71
-332 -95 -447 -144 -680 -27 -132 -57 -268 -65 -302 -8 -34 -15 -67 -15 -73 0
-6 44 -10 124 -10 l123 0 30 143 c17 78 50 233 74 345 l43 202 29 0 30 0 -7
-232 c-3 -128 -9 -284 -12 -345 l-6 -113 124 0 125 0 6 263 c4 144 7 321 7
394 l0 132 41 38 c63 57 116 146 148 247 92 288 57 476 -101 547 -49 22 -69
24 -241 27 -149 3 -188 1 -191 -10z m277 -250 c54 -28 71 -118 41 -231 -35
-138 -110 -227 -189 -227 -26 0 -27 1 -20 43 4 23 20 98 35 167 16 69 34 154
40 190 6 36 14 68 16 72 6 9 48 1 77 -14z"/>
    <path d="M7085 1638 c-3 -7 -16 -67 -29 -133 -14 -66 -41 -194 -60 -285 -19
-91 -51 -241 -71 -335 -20 -93 -52 -243 -71 -332 -34 -162 -100 -473 -111
-525 l-5 -28 150 0 c479 0 558 104 734 970 37 185 42 220 42 355 1 142 0 152
-24 195 -31 56 -88 95 -165 115 -77 20 -383 22 -390 3z m300 -263 c22 -22 25
-32 25 -105 0 -81 -4 -101 -112 -605 -59 -273 -97 -368 -162 -399 -33 -15 -96
-22 -96 -10 0 3 13 67 30 142 16 75 52 245 80 377 28 132 61 290 74 350 14 61
32 147 42 193 l17 82 39 0 c28 0 46 -7 63 -25z"/>
    <path d="M7915 1628 c-3 -13 -21 -99 -41 -193 -19 -93 -51 -243 -70 -332 -47
-223 -100 -471 -135 -638 -16 -77 -45 -210 -63 -295 -18 -85 -31 -158 -29
-162 2 -5 127 -8 278 -8 l274 0 10 38 c9 32 41 197 41 208 0 2 -68 4 -151 4
l-152 0 7 50 c4 27 22 119 41 204 19 85 35 164 35 176 0 19 6 20 114 20 100 0
115 2 120 18 3 9 16 69 29 132 l24 115 -109 3 c-89 2 -108 5 -108 18 0 14 62
313 78 379 l8 30 157 3 c86 1 157 4 157 6 0 5 38 194 45 224 l5 22 -280 0
-280 0 -5 -22z"/>
    <path d="M8605 1638 c-2 -7 -18 -78 -34 -158 -32 -150 -103 -489 -141 -665
-11 -55 -39 -183 -60 -285 -22 -102 -53 -250 -70 -330 -17 -80 -34 -157 -37
-172 l-5 -28 114 0 114 0 32 148 c17 81 50 235 72 342 59 281 91 424 95 428 7
7 15 -81 25 -273 22 -394 30 -542 36 -592 l5 -53 110 0 c79 0 111 3 113 13 2
6 20 91 40 187 20 96 55 261 77 365 55 260 104 489 146 685 19 91 45 215 59
277 13 62 24 115 24 118 0 3 -51 5 -114 5 l-114 0 -11 -47 c-30 -139 -146
-685 -177 -835 -3 -16 -9 -28 -13 -28 -7 0 -22 216 -41 590 -6 107 -13 223
-16 258 l-6 62 -109 0 c-79 0 -111 -4 -114 -12z"/>
    <path d="M9482 1598 c-13 -61 -74 -347 -127 -593 -20 -93 -49 -233 -65 -310
-16 -77 -54 -257 -85 -400 -30 -142 -55 -267 -55 -277 0 -17 15 -18 277 -16
l276 3 23 100 c37 160 50 145 -126 145 -113 0 -150 3 -150 13 0 12 71 354 85
409 l7 27 111 3 112 3 27 125 c15 69 27 128 28 133 0 4 -50 7 -111 7 l-111 0
6 28 c21 105 78 370 82 385 5 15 21 17 159 17 152 0 155 0 160 23 3 12 14 60
25 107 11 47 20 93 20 103 0 16 -20 17 -279 17 l-278 0 -11 -52z"/>
    <path d="M10180 1644 c0 -4 -11 -57 -25 -118 -13 -61 -40 -186 -60 -278 -19
-93 -51 -241 -70 -330 -19 -90 -57 -271 -85 -403 -46 -219 -92 -435 -105 -493
l-6 -23 128 3 127 3 22 110 c12 61 41 200 64 310 24 110 46 214 49 230 5 24
13 31 35 33 l28 4 -8 -304 c-4 -167 -8 -321 -8 -343 l-1 -40 125 0 125 0 5
391 5 391 47 45 c86 84 145 209 172 364 33 188 15 298 -63 375 -67 68 -113 79
-328 79 -95 0 -173 -3 -173 -6z m277 -256 c53 -26 68 -131 35 -249 -35 -127
-93 -196 -174 -207 l-41 -5 7 29 c4 16 14 61 21 99 8 39 28 132 44 207 17 76
31 140 31 143 0 7 50 -4 77 -17z"/>
    <path d="M2617 713 c-5 -7 -47 -196 -47 -208 0 -3 74 -5 164 -5 148 0 165 2
170 18 10 33 36 163 36 183 0 18 -8 19 -159 19 -88 0 -162 -3 -164 -7z"/>
    <path d="M3936 703 c-3 -10 -14 -60 -25 -110 l-18 -93 166 0 166 0 22 103 c11
56 19 105 16 110 -2 4 -76 7 -163 7 -142 0 -159 -2 -164 -17z"/>
  </g>
</svg>
